<svg xmlns="http://www.w3.org/2000/svg" viewBox="-540 406.2 110.4 29.7" enable-background="new -540 406.2 110.4 29.7"><style type="text/css">.st0{fill:#FABA00;} .st1{fill:#00ABE8;} .st2{fill:#FFFFFF;}</style><path class="st0" d="M-534.1 424.7c0-.3.2-.5.4-.5h8.1v-10.7c0-1.7-1.4-3.2-3.2-3.2h-8c-1.8 0-3.2 1.4-3.2 3.2v6.5c0 9 7.5 14.4 13.6 14.4h.1c.4 0 .7-.3.7-.7v-2.5c-4.4-.4-7.9-3.1-8.5-6.5z"/><path class="st1" d="M-510 406.2h-10.1c-1.7 0-3.2 1.4-3.2 3.2v14.8h8.1c.2 0 .4.2.4.4-.6 3.4-4.1 6.1-8.5 6.5v3.6c0 .6.5 1.1 1 1 10.3-.8 15.4-8.3 15.4-16.9v-9.4c0-1.8-1.4-3.2-3.1-3.2z"/><path class="st2" d="M-456.3 413.3v10.4l-8.5-10.4h-2.4v16.1h3.2v-10.2l8.4 10.2h2.5v-16.1zM-432.8 413.3h3.2v16.1h-3.2zM-443.4 413.3h-6.2v16.1h6.2c4.4 0 8-3.6 8-8 .1-4.5-3.5-8.1-8-8.1zm0 12.9h-3v-9.7h3c2.7 0 4.8 2.2 4.8 4.8.1 2.8-2.1 4.9-4.8 4.9zM-490.8 413.3v10.2c0 1.7-1.4 3.1-3.1 3.1-1.5 0-2.7-1-3-2.4h-3.3c.4 3.1 3 5.6 6.3 5.6 3.5 0 6.3-2.8 6.3-6.3v-10.2h-3.2zM-476.1 413.3h-3.2l-6.9 16.1h3.4l1.4-3.2h7.6l1.4 3.2h3.4l-7.1-16.1zm-4.1 10.1l2.5-5.9 2.5 5.9h-5z"/></svg>